<svg xmlns="http://www.w3.org/2000/svg" viewBox="0 0 720 520" role="img" aria-labelledby="title desc">
  <title id="title">Woman data scientist building AI systems</title>
  <desc id="desc">A clean flat illustration of a woman data scientist with dashboard cards, database blocks, Python code, and an AI workflow.</desc>
  <defs>
    <linearGradient id="panel" x1="82" x2="620" y1="96" y2="424" gradientUnits="userSpaceOnUse">
      <stop offset="0" stop-color="#6c63ff"/>
      <stop offset="1" stop-color="#55198b"/>
    </linearGradient>
    <linearGradient id="jacket" x1="334" x2="526" y1="286" y2="472" gradientUnits="userSpaceOnUse">
      <stop offset="0" stop-color="#6c63ff"/>
      <stop offset="1" stop-color="#4b177d"/>
    </linearGradient>
  </defs>

  <rect width="720" height="520" fill="none"/>
  <path fill="#232a49" d="M75 384c-4-61 40-113 104-122 55-8 74-45 116-82 66-59 166-64 239-12 51 37 66 91 93 119 31 31 54 63 42 105-15 54-75 86-151 86H209c-75 0-130-35-134-94Z"/>
  <ellipse cx="372" cy="468" rx="250" ry="25" fill="#101421" opacity=".5"/>

  <g>
    <rect x="86" y="101" width="220" height="158" rx="22" fill="#252c4e"/>
    <circle cx="123" cy="135" r="8" fill="#ff6584"/>
    <circle cx="149" cy="135" r="8" fill="#ffd15c"/>
    <circle cx="175" cy="135" r="8" fill="#6c63ff"/>
    <rect x="122" y="170" width="92" height="12" rx="6" fill="#a29bfe"/>
    <rect x="122" y="199" width="142" height="10" rx="5" fill="#6c63ff"/>
    <rect x="122" y="225" width="104" height="10" rx="5" fill="#4f5a91"/>
    <path d="M250 174l28 25-28 25M115 174l-28 25 28 25" fill="none" stroke="#ffd15c" stroke-linecap="round" stroke-linejoin="round" stroke-width="8"/>
  </g>

  <g>
    <rect x="470" y="90" width="154" height="152" rx="24" fill="#252c4e"/>
    <path d="M502 191c19-42 42-60 67-54 19 4 30-4 43-30" fill="none" stroke="#ff6584" stroke-linecap="round" stroke-width="8"/>
    <rect x="505" y="121" width="18" height="77" rx="7" fill="#6c63ff"/>
    <rect x="538" y="151" width="18" height="47" rx="7" fill="#a29bfe"/>
    <rect x="571" y="109" width="18" height="89" rx="7" fill="#ffd15c"/>
  </g>

  <g>
    <rect x="124" y="310" width="134" height="94" rx="18" fill="#252c4e"/>
    <ellipse cx="191" cy="335" rx="48" ry="14" fill="#6c63ff"/>
    <path d="M143 335v40c0 8 21 15 48 15s48-7 48-15v-40" fill="none" stroke="#a29bfe" stroke-width="7"/>
    <path d="M143 356c0 8 21 15 48 15s48-7 48-15" fill="none" stroke="#ffd15c" stroke-width="7"/>
  </g>

  <g>
    <path fill="#130b2d" d="M352 166c-53 15-88 63-88 121 0 71 52 130 122 138 71 8 135-37 150-107 13-61-19-121-77-147-33-15-70-17-107-5Z"/>
    <path fill="#08051a" d="M344 155c-65 23-96 88-76 153 14 44 48 78 93 92 7-35 7-73 1-114-4-31 8-56 37-74 24-15 53-18 85-10-23-39-78-64-140-47Z"/>

    <circle cx="418" cy="247" r="63" fill="#c27682"/>
    <path fill="#08051a" d="M363 240c15-52 57-84 107-77 42 6 72 36 80 83-54-2-104-21-151-57-16 13-28 30-36 51Z"/>
    <circle cx="367" cy="253" r="16" fill="#c27682"/>
    <circle cx="472" cy="253" r="16" fill="#c27682"/>
    <circle cx="397" cy="259" r="5" fill="#171c28"/>
    <circle cx="447" cy="259" r="5" fill="#171c28"/>
    <path d="M403 283c14 10 31 10 46 0" fill="none" stroke="#7a3d50" stroke-linecap="round" stroke-width="5"/>

    <path fill="#ffd15c" d="M378 314c26 19 55 19 86 0l18 42c-38 25-78 25-122 0l18-42Z"/>
    <path fill="url(#jacket)" d="M318 374c21-45 56-68 105-68 51 0 88 23 110 68l24 92H294l24-92Z"/>
    <path fill="#c27682" d="M321 372c-42 16-74 42-96 78-7 11-3 25 8 32 12 6 26 2 33-9 17-28 42-47 73-59l-18-42Z"/>
    <path fill="#c27682" d="M526 374c42 16 74 42 96 78 7 11 3 25-8 32-12 6-26 2-33-9-17-28-42-47-73-59l18-42Z"/>
  </g>

  <g>
    <rect x="236" y="336" width="284" height="100" rx="18" fill="#e9eaf0"/>
    <rect x="252" y="352" width="252" height="68" rx="10" fill="#c8ccd8"/>
    <circle cx="378" cy="386" r="19" fill="#e9eaf0"/>
    <path fill="#9da2b1" d="M520 436h116c14 0 25 11 25 25v5H528l-8-30Z"/>
  </g>

  <g opacity=".9">
    <circle cx="596" cy="286" r="12" fill="#ffd15c"/>
    <circle cx="631" cy="319" r="9" fill="#ff6584"/>
    <circle cx="96" cy="277" r="11" fill="#6c63ff"/>
    <path d="M312 105l-29 72" fill="none" stroke="#ff6584" stroke-linecap="round" stroke-width="8"/>
    <rect x="328" y="116" width="20" height="20" rx="5" fill="#6c63ff"/>
    <rect x="359" y="116" width="20" height="20" rx="5" fill="#a29bfe"/>
    <rect x="390" y="116" width="20" height="20" rx="5" fill="#ffd15c"/>
  </g>
</svg>
